<svg width="22" height="32" viewBox="0 0 22 32" fill="none" xmlns="http://www.w3.org/2000/svg">
<path d="M11.0107 31.6652C5.33091 31.6652 0.709885 27.0442 0.709885 21.3642C0.709885 17.6993 6.03877 5.78043 7.40012 3.06564C8.30898 1.25359 9.57431 0.255768 10.9638 0.255768C11.7654 0.255768 13.2945 0.620237 14.5332 3.06143C15.9685 5.89102 21.3115 17.6595 21.3115 21.3642C21.3115 27.0442 16.6904 31.6652 11.0107 31.6652ZM10.9638 2.1746C10.3562 2.1746 9.66522 2.82903 9.11569 3.92575C7.4484 7.24957 2.62875 18.4082 2.62875 21.3642C2.62875 25.9864 6.38871 29.7464 11.0107 29.7464C15.6327 29.7464 19.3926 25.9864 19.3926 21.3642C19.3926 18.4536 14.7289 7.68898 12.8223 3.92953C12.2564 2.81407 11.5789 2.1746 10.9638 2.1746Z" fill="white"/>
</svg>
